<svg width="21" height="22" viewBox="0 0 21 22" fill="none" xmlns="http://www.w3.org/2000/svg">
<path d="M7.52531 2.5721L8.427 4.57782C8.9097 5.65165 8.6553 6.91366 7.79427 7.71661L6.29997 9.1101C6.25629 9.1508 6.22864 9.2058 6.22201 9.2652C6.17765 9.6623 6.44688 10.4357 7.06715 11.51C7.5182 12.2913 7.92644 12.8391 8.2739 13.1473C8.516 13.362 8.6493 13.4084 8.7061 13.3915L10.7164 12.7769C11.842 12.4328 13.0618 12.8431 13.7505 13.7976L15.0312 15.5726C15.8373 16.6898 15.6924 18.2311 14.6921 19.1784L13.8057 20.0178C12.8493 20.9236 11.4877 21.2611 10.219 20.907C7.4649 20.1383 4.9956 17.8141 2.78372 13.9831C0.568771 10.1467 -0.208419 6.84222 0.508031 4.07043C0.835901 2.80195 1.80203 1.79656 3.05646 1.41844L4.22346 1.06668C5.54596 0.668038 6.95896 1.31227 7.52531 2.5721ZM4.65636 2.50285L3.48936 2.85461C2.7367 3.08148 2.15702 3.68472 1.9603 4.44581C1.35765 6.77732 2.04651 9.7062 4.08276 13.2331C6.11629 16.7552 8.3052 18.8155 10.6223 19.4622C11.3835 19.6747 12.2004 19.4722 12.7743 18.9287L13.6606 18.0893C14.1153 17.6587 14.1812 16.9581 13.8148 16.4503L12.5341 14.6753C12.221 14.2415 11.6666 14.0549 11.1549 14.2114L9.1396 14.8275C7.96987 15.1762 6.9082 14.2347 5.76811 12.26C4.9998 10.9293 4.64171 9.9006 4.73128 9.0987C4.77768 8.68322 4.97125 8.29812 5.27697 8.01303L6.77127 6.61958C7.16266 6.2546 7.27829 5.68096 7.05887 5.19286L6.1572 3.18714C5.89977 2.61449 5.25749 2.32165 4.65636 2.50285ZM15.1483 1.0043L15.2501 0.997448C15.6298 0.997448 15.9436 1.2796 15.9933 1.64568L16.0001 1.74745L15.9995 5.00122L19.2519 5.0021C19.6316 5.0021 19.9453 5.28425 19.995 5.65033L20.0019 5.7521C20.0019 6.1318 19.7197 6.44559 19.3536 6.49525L19.2519 6.5021L15.9995 6.50122L16.0001 9.7504C16.0001 10.1301 15.718 10.4439 15.3519 10.4936L15.2501 10.5004C14.8704 10.5004 14.5566 10.2183 14.507 9.8522L14.5001 9.7504L14.4995 6.50122L11.2484 6.5021C10.8687 6.5021 10.5549 6.21995 10.5052 5.85387L10.4984 5.7521C10.4984 5.37241 10.7805 5.05861 11.1466 5.00895L11.2484 5.0021L14.4995 5.00122L14.5001 1.74745C14.5001 1.36775 14.7823 1.05396 15.1483 1.0043L15.2501 0.997448L15.1483 1.0043Z" fill="#817CFF"/>
</svg>
