<svg width="21" height="17" viewBox="0 0 21 17" fill="none" xmlns="http://www.w3.org/2000/svg">
<path d="M4 4C4 2.61929 5.11929 1.5 6.5 1.5C7.88071 1.5 9 2.61929 9 4C9 5.38071 7.88071 6.5 6.5 6.5C5.11929 6.5 4 5.38071 4 4ZM6.5 0C4.29086 0 2.5 1.79086 2.5 4C2.5 6.2091 4.29086 8 6.5 8C8.7091 8 10.5 6.2091 10.5 4C10.5 1.79086 8.7091 0 6.5 0ZM14 5C14 4.17157 14.6716 3.5 15.5 3.5C16.3284 3.5 17 4.17157 17 5C17 5.82843 16.3284 6.5 15.5 6.5C14.6716 6.5 14 5.82843 14 5ZM15.5 2C13.8431 2 12.5 3.34315 12.5 5C12.5 6.6569 13.8431 8 15.5 8C17.1569 8 18.5 6.6569 18.5 5C18.5 3.34315 17.1569 2 15.5 2ZM12.7484 15.0377C13.4507 15.3232 14.3517 15.5 15.501 15.5C17.7833 15.5 19.0867 14.8027 19.7979 13.9421C20.143 13.5244 20.3186 13.1027 20.4077 12.7795C20.4521 12.6181 20.4754 12.48 20.4875 12.377C20.4936 12.3254 20.497 12.2821 20.4988 12.2487C20.4997 12.232 20.5003 12.2177 20.5006 12.2059L20.5009 12.1903L20.501 12.1839V12.1811V12.1786C20.501 10.9754 19.5256 10 18.3224 10H12.6796C12.6521 10 12.6248 10.0005 12.5977 10.0015C12.9916 10.4126 13.2787 10.927 13.414 11.5H18.3224C18.694 11.5 18.9958 11.7986 19.0009 12.1689C19.0006 12.1746 18.9997 12.1855 18.9979 12.2011C18.9934 12.2387 18.9835 12.3015 18.9615 12.3812C18.9177 12.5402 18.8277 12.7613 18.6416 12.9865C18.2903 13.4116 17.4687 14 15.501 14C14.5209 14 13.8252 13.854 13.3302 13.655C13.2231 14.0551 13.0452 14.5378 12.7484 15.0377ZM2.75 10C1.50736 10 0.5 11.0074 0.5 12.25V12.5011V12.5022L0.50001 12.5048L0.50007 12.5111L0.50035 12.5277C0.50064 12.5406 0.50117 12.5571 0.5021 12.5771C0.50396 12.6169 0.50745 12.6705 0.51398 12.7358C0.52701 12.8661 0.55233 13.045 0.60165 13.2564C0.69995 13.6776 0.89654 14.2404 1.29183 14.8051C2.11066 15.9749 3.67178 17 6.5 17C9.3282 17 10.8893 15.9749 11.7082 14.8051C12.1035 14.2404 12.3001 13.6776 12.3983 13.2564C12.4477 13.045 12.473 12.8661 12.486 12.7358C12.4926 12.6705 12.496 12.6169 12.4979 12.5771C12.4988 12.5571 12.4994 12.5406 12.4996 12.5277L12.4999 12.5111L12.5 12.5048V12.5022V12.25C12.5 11.0074 11.4926 10 10.25 10H2.75ZM2.00047 12.5072L2 12.4947V12.25C2 11.8358 2.33579 11.5 2.75 11.5H10.25C10.6642 11.5 11 11.8358 11 12.25V12.4946L10.9995 12.5072C10.9988 12.5222 10.9972 12.5493 10.9935 12.5865C10.986 12.6612 10.9703 12.7753 10.9376 12.9155C10.8718 13.1974 10.7403 13.5721 10.4793 13.9449C9.9857 14.6501 8.9218 15.5 6.5 15.5C4.07822 15.5 3.01434 14.6501 2.52067 13.9449C2.25971 13.5721 2.12818 13.1974 2.06241 12.9155C2.0297 12.7753 2.014 12.6612 2.00653 12.5865C2.00281 12.5493 2.00117 12.5222 2.00047 12.5072Z" fill="#817CFF"/>
</svg>
