<svg width="18" height="18" viewBox="0 0 18 18" fill="none" xmlns="http://www.w3.org/2000/svg">
<path d="M6.42138 0.775241C6.65575 1.00951 6.65584 1.3894 6.42159 1.62377L2.6475 5.39961H9.0001C12.5191 5.39961 15.7119 7.36744 17.3238 10.2508C17.4855 10.5402 17.3821 10.9057 17.0929 11.0673C16.8036 11.2291 16.4381 11.1256 16.2764 10.8364C14.8729 8.32582 12.077 6.59961 9.0001 6.59961H2.6488L6.42159 10.3741C6.65584 10.6084 6.65575 10.9884 6.42138 11.2226C6.18702 11.457 5.80711 11.4568 5.57286 11.2225L0.792746 6.44014C0.67427 6.33053 0.600098 6.17373 0.600098 5.99961C0.600098 5.9995 0.600098 5.99972 0.600098 5.99961C0.600014 5.846 0.658562 5.69201 0.77573 5.57478L5.57286 0.775445C5.80711 0.541073 6.18702 0.540989 6.42138 0.775241ZM6.6001 14.9996C6.6001 13.6741 7.67461 12.5996 9.0001 12.5996C10.3256 12.5996 11.4001 13.6741 11.4001 14.9996C11.4001 16.3251 10.3256 17.3996 9.0001 17.3996C7.67461 17.3996 6.6001 16.3251 6.6001 14.9996ZM9.0001 13.7996C8.33736 13.7996 7.8001 14.3368 7.8001 14.9996C7.8001 15.6624 8.33736 16.1996 9.0001 16.1996C9.66286 16.1996 10.2001 15.6624 10.2001 14.9996C10.2001 14.3368 9.66286 13.7996 9.0001 13.7996Z" fill="#817CFF"/>
</svg>
