<svg width="255" height="91" viewBox="0 0 255 91" fill="none" xmlns="http://www.w3.org/2000/svg">
<path d="M21.7395 91.0001H7.63668C3.41681 91.0001 0 87.5795 0 83.3634V7.64059C0 3.42072 3.4206 0.00390625 7.63668 0.00390625H21.7395C25.9594 0.00390625 29.3762 3.4245 29.3762 7.64059V83.3634C29.3762 87.5795 25.9556 91.0001 21.7395 91.0001Z" fill="#F49B31"/>
<path d="M201.015 91.0001H186.912C182.692 91.0001 179.276 87.5795 179.276 83.3634V7.64059C179.276 3.42072 182.696 0.00390625 186.912 0.00390625H201.015C205.235 0.00390625 208.652 3.4245 208.652 7.64059V83.3634C208.656 87.5795 205.235 91.0001 201.015 91.0001Z" fill="#F49B31"/>
<path d="M132.74 91.0001H118.637C114.417 91.0001 111 87.5795 111 83.3634V7.64059C111 3.42072 114.421 0.00390625 118.637 0.00390625H132.74C136.959 0.00390625 140.376 3.4245 140.376 7.64059V83.3634C140.376 87.5795 136.959 91.0001 132.74 91.0001Z" fill="#F49B31"/>
<path d="M175.639 7.64059V21.7434C175.639 25.9633 172.218 29.3801 168.002 29.3801H119.11C114.89 29.3801 111.474 25.9595 111.474 21.7434V7.64059C111.474 3.42072 114.894 0.00390625 119.11 0.00390625H167.999C172.218 0.00390625 175.639 3.42072 175.639 7.64059Z" fill="#F49B31"/>
<path d="M175.166 69.2607V83.3636C175.166 87.5834 171.745 91.0002 167.529 91.0002H118.637C114.417 91.0002 111 87.5796 111 83.3636V69.2607C111 65.0408 114.421 61.624 118.637 61.624H167.525C171.745 61.624 175.166 65.0408 175.166 69.2607Z" fill="#F49B31"/>
<path d="M179.276 52.552V38.4492C179.276 34.2293 182.696 30.8125 186.912 30.8125H246.456C250.676 30.8125 254.093 34.2331 254.093 38.4492V52.552C254.093 56.7719 250.672 60.1887 246.456 60.1887H186.916C182.696 60.1887 179.276 56.7719 179.276 52.552Z" fill="#F49B31"/>
<path d="M103.245 83.3637C103.245 87.5836 99.8247 91.0004 95.6086 91.0004H44.8035C38.8373 91.0004 34 86.1631 34 80.1969V7.64087C34 4.26573 36.1895 1.39819 39.2275 0.390573C40.523 -0.0374746 41.9473 0.424664 42.7579 1.51941L103.245 83.3637Z" fill="#F49B31"/>
<path d="M60.1035 4.8752C60.1035 2.18191 62.4029 0 65.2401 0H99.4006C103.412 0 106.666 3.08725 106.666 6.89422V53.203C106.666 55.3583 105.193 57.188 103.151 57.8319C102.28 58.1047 101.321 57.8092 100.776 57.1084L60.1035 4.8752Z" fill="#5C46DE"/>
</svg>
