<svg width="21" height="21" viewBox="0 0 21 21" fill="none" xmlns="http://www.w3.org/2000/svg">
<path d="M18.8782 1.82559L19.0312 1.96997L19.1755 2.12294C20.4268 3.52817 20.3787 5.68308 19.0312 7.03063L7.06283 18.999C6.78596 19.2758 6.44162 19.4757 6.06386 19.5787L0.948168 20.9739C0.388288 21.1266 -0.125442 20.6128 0.0272577 20.053L1.42244 14.9373C1.52547 14.5595 1.7253 14.2152 2.00217 13.9383L13.9705 1.96997C15.3181 0.622421 17.473 0.574291 18.8782 1.82559ZM13.001 5.06088L3.06283 14.999C2.97054 15.0913 2.90393 15.206 2.86959 15.332L1.81974 19.1814L5.66918 18.1315C5.7951 18.0972 5.90988 18.0306 6.00217 17.9383L15.94 7.99988L13.001 5.06088ZM4.52583 9.9999L3.02583 11.4999L0.750828 11.5003C0.336608 11.5003 0.00082756 11.1645 0.00082756 10.7503C0.00082756 10.3361 0.336608 10.0003 0.750828 10.0003L4.52583 9.9999ZM8.5258 5.99988L7.02583 7.49988L0.750828 7.5003C0.336608 7.5003 0.00082756 7.16452 0.00082756 6.7503C0.00082756 6.33609 0.336608 6.0003 0.750828 6.0003L8.5258 5.99988ZM15.0312 3.03063L14.061 3.99987L17 6.93988L17.9705 5.96997C18.7822 5.1583 18.7822 3.84231 17.9705 3.03063C17.1588 2.21896 15.8428 2.21896 15.0312 3.03063ZM12.5258 1.99988L11.0258 3.49987L0.750828 3.5003C0.336608 3.5003 0.00082756 3.16452 0.00082756 2.7503C0.00082756 2.33609 0.336608 2.0003 0.750828 2.0003L12.5258 1.99988Z" fill="#817CFF"/>
</svg>
