<svg width="17" height="20" viewBox="0 0 17 20" fill="none" xmlns="http://www.w3.org/2000/svg">
<path d="M9.9994 0.00390625C11.5971 0.00390625 12.9031 1.25283 12.9935 2.82294L12.9984 2.99867L15.2494 2.99967C16.1166 2.99967 16.8365 3.63039 16.9753 4.45825L16.9936 4.6063L16.9994 4.74985L16.9985 8.5009L15.0009 8.501C14.2573 8.501 13.6347 9.0442 13.521 9.74L13.5057 9.8722L13.5009 10.001C13.5009 10.7446 14.0441 11.3672 14.74 11.4809L14.8721 11.4962L15.0009 11.501L16.9985 11.5009L16.9994 15.2523C16.9994 16.1705 16.2923 16.9235 15.3929 16.9965L15.2494 17.0023L12.9984 17.0017L12.9944 17.1743C12.91 18.6301 11.7875 19.8075 10.3562 19.9771L10.1757 19.993L9.9994 19.9981C8.4018 19.9981 7.0958 18.7491 7.0045 17.1776L6.99945 17.0017L4.74945 17.0023C3.88228 17.0023 3.16243 16.3716 3.02362 15.544L3.00525 15.396L2.99945 15.2525L2.99845 13.0007L2.83545 12.9959C1.37962 12.9115 0.202299 11.7891 0.0327089 10.3577L0.0168087 10.1773L0.0117188 10.001C0.0117188 8.4033 1.26064 7.09732 2.83538 7.00607L2.99845 7.00067L2.99945 4.74967C2.99945 3.88251 3.63017 3.16266 4.45776 3.02385L4.60576 3.00547L4.74926 2.99967L6.99845 2.99867L7.0045 2.82763C7.0889 1.37181 8.2114 0.194486 9.6427 0.0248961L9.8232 0.00899625L9.9994 0.00390625ZM9.9994 1.50391C9.2198 1.50391 8.579 2.09879 8.5063 2.86006L8.4994 3.00464L8.498 4.49872L4.74945 4.49967C4.6311 4.49967 4.53196 4.5819 4.50605 4.69246L4.49945 4.74985L4.49854 8.5008L3.01172 8.501C2.18329 8.501 1.51172 9.1726 1.51172 10.001C1.51172 10.7807 2.10661 11.4214 2.8672 11.4941L3.01165 11.501L4.49854 11.5008L4.49945 15.2523C4.49945 15.3706 4.58168 15.4698 4.69207 15.4957L4.74935 15.5023L8.498 15.5018L8.4994 16.9981C8.4994 17.8265 9.171 18.4981 9.9994 18.4981C10.7791 18.4981 11.4199 17.9032 11.4926 17.1431L11.4994 16.9988L11.498 15.5018L15.2494 15.5023C15.3678 15.5023 15.4669 15.4201 15.4928 15.3097L15.4994 15.2525L15.4984 12.9997L14.9757 13.0006L14.7963 12.9941C13.285 12.8919 12.0922 11.6766 12.0063 10.1529L12.0013 9.9757L12.0078 9.7963C12.11 8.285 13.3253 7.09226 14.8264 7.00598L15.0009 7.00098L15.4984 7.00067L15.4994 4.74967C15.4994 4.65499 15.4468 4.57261 15.3692 4.53017L15.3067 4.50627L15.2493 4.49967L11.498 4.49872L11.4994 3.00391C11.4994 2.17548 10.8279 1.50391 9.9994 1.50391Z" fill="#817CFF"/>
</svg>
